# xmcd
#
# Track frame offsets:
#	150
#	19720
#	38453
#	61545
#	85735
#	103436
#	119015
#	138810
#	159438
#	174548
#	193104
#	208782
#	224188
#	240505
#	255918
#	272947
#	290358
#	319772
#
# Disc length: 4278 seconds
#
# Revision: 1
# Processed by: cddbd v1.5.2PL0 Copyright (c) Steve Scherf et al.
# Submitted via: audiograbber 1.83.01
#
DISCID=0410b412
DTITLE=Chartbusters - Country 500 Vol.1 d.23
DYEAR=1900
DGENRE=karaoke
TTITLE0=Kenny Chesney - She Thinks My Tractor's Sexy
TTITLE1=Shenia Twain - Man! I Feel Like a Woman!
TTITLE2=Shenia Twain and Bryan White - From This Moment On
TTITLE3=Clay walker - The Chain of Love
TTITLE4=Dixie Chicks - Wide Open Spaces
TTITLE5=Martina McBride - Valentine
TTITLE6=Faith Hill and Tim McGraw - Let's Make Love
TTITLE7=Trisha Yearwood - How Do I Live
TTITLE8=Faith Hill - This Kiss
TTITLE9=Clay Davidson - Unconditional
TTITLE10=Jo Dee Mecina - Bye Bye
TTITLE11=Lee Ann Womack - I'll Think of a Reason Later
TTITLE12=George Jones - Choices
TTITLE13=Jo Dee Mecina - I'm alright
TTITLE14=Sara Evans - No Place That Far
TTITLE15=Shenia Twain - That Don't Impress Me Much
TTITLE16=Rascal Flatts - I'm moving on
TTITLE17=Data - Track
EXTD=
EXTT0=
EXTT1=
EXTT2=
EXTT3=
EXTT4=
EXTT5=
EXTT6=
EXTT7=
EXTT8=
EXTT9=
EXTT10=
EXTT11=
EXTT12=
EXTT13=
EXTT14=
EXTT15=
EXTT16=
EXTT17=
PLAYORDER=
